<?xml version="1.0" encoding="UTF-8"?>
<svg width="476px" height="155px" viewBox="0 0 476 155" version="1.1" xmlns="http://www.w3.org/2000/svg" xmlns:xlink="http://www.w3.org/1999/xlink">
    <title>Logo converted@2x</title>
    <defs>
        <linearGradient x1="0%" y1="0.120926067%" x2="100%" y2="99.8790739%" id="linearGradient-1">
            <stop stop-color="#FF3367" offset="0%"></stop>
            <stop stop-color="#FF3393" offset="26.7947635%"></stop>
            <stop stop-color="#844FFF" offset="100%"></stop>
        </linearGradient>
        <linearGradient x1="0%" y1="0.125003744%" x2="100%" y2="99.8749963%" id="linearGradient-2">
            <stop stop-color="#FF3367" offset="0%"></stop>
            <stop stop-color="#FF3393" offset="26.7947635%"></stop>
            <stop stop-color="#844FFF" offset="100%"></stop>
        </linearGradient>
    </defs>
    <g id="Page-1" stroke="none" stroke-width="1" fill="none" fill-rule="evenodd">
        <g id="Artboard" transform="translate(-1129.000000, -1377.000000)">
            <g id="Logo-converted" transform="translate(1088.000000, 1330.000000)">
                <rect id="bg" x="0" y="0" width="557" height="249"></rect>
                <g id="Logo" transform="translate(41.000000, 47.000000)" fill-rule="nonzero">
                    <g id="Up">
                        <polygon id="Layer" fill="url(#linearGradient-1)" points="9.54545455 145.454545 139.713957 145.454545 139.713957 154.545455 0.454545455 154.545455 0.454545455 15.4545455 9.54545455 15.4545455"></polygon>
                        <polygon id="Surface" fill="url(#linearGradient-2)" points="18.6534416 0 155.187858 0 155.187858 136.363636 18.6534416 136.363636"></polygon>
                        <path d="M82.0054108,49.0909091 L82.0054108,92.9090909 C82.0054108,93.5454545 81.732342,93.8181818 81.0951814,93.8181818 L71.9928869,93.8181818 C71.3557263,93.8181818 71.0826575,93.5454545 71.0826575,92.9090909 L71.0826575,89.6363636 C67.3507168,92.7272727 63.1636613,94.7272727 57.3381929,94.7272727 C47.416692,94.7272727 41.4091777,88.8181818 41.4091777,79.3636364 L41.4091777,49.0909091 C41.4091777,48.4545455 41.6822465,48.1818182 42.3194071,48.1818182 L51.4217015,48.1818182 C52.0588622,48.1818182 52.331931,48.4545455 52.331931,49.0909091 L52.331931,75.4545455 C52.331931,82.2727273 55.1536423,84.9090909 60.1599042,84.9090909 C65.8943497,84.9090909 71.0826575,80.5454545 71.0826575,69.7272727 L71.0826575,49.0909091 C71.0826575,48.4545455 71.3557263,48.1818182 71.9928869,48.1818182 L81.0951814,48.1818182 C81.732342,48.1818182 82.0054108,48.4545455 82.0054108,49.0909091 Z M87.6488333,110.909091 L87.6488333,49.0909091 C87.6488333,48.4545455 87.9219022,48.1818182 88.5590628,48.1818182 L97.6613572,48.1818182 C98.2985178,48.1818182 98.5715866,48.4545455 98.5715866,49.0909091 L98.5715866,51.9090909 C102.030459,49.0909091 106.217514,47.2727273 111.678891,47.2727273 C123.966988,47.2727273 132.432122,56.3636364 132.432122,71 C132.432122,85.6363636 123.966988,94.7272727 111.678891,94.7272727 C106.672629,94.7272727 102.485573,93.2727273 98.5715866,90.1818182 L98.5715866,110.909091 C98.5715866,111.545455 98.2985178,111.818182 97.6613572,111.818182 L88.5590628,111.818182 C87.9219022,111.818182 87.6488333,111.545455 87.6488333,110.909091 Z M98.025449,71 C98.025449,78.8181818 102.303527,84.9090909 109.49434,84.9090909 C116.685153,84.9090909 120.963231,78.8181818 120.963231,71 C120.963231,63.1818182 116.685153,57.0909091 109.49434,57.0909091 C102.303527,57.0909091 98.025449,63.1818182 98.025449,71 Z" id="up" fill="#FFFFFF"></path>
                    </g>
                    <path d="M181.22,50.48 L181.22,46.7 C181.22,46.21 181.43,46 181.92,46 L195.43,46 C195.92,46 196.13,46.21 196.13,46.7 L196.13,89.82 L206.35,89.82 C206.84,89.82 207.05,90.03 207.05,90.52 L207.05,94.3 C207.05,94.79 206.84,95 206.35,95 L180.52,95 C180.03,95 179.82,94.79 179.82,94.3 L179.82,90.52 C179.82,90.03 180.03,89.82 180.52,89.82 L190.67,89.82 L190.67,51.18 L181.92,51.18 C181.43,51.18 181.22,50.97 181.22,50.48 Z M251.63,79.11 L225.31,79.11 C225.87,85.69 229.37,90.52 236.16,90.52 C241.2,90.52 244.07,88.49 245.75,84.08 C245.96,83.52 246.24,83.45 246.73,83.45 L251.28,83.45 C251.63,83.45 251.77,83.66 251.77,83.94 C251.77,84.08 251.77,84.22 251.63,84.64 C249.11,91.99 243.93,95.7 236.16,95.7 C225.24,95.7 219.43,87.72 219.43,77.43 C219.43,67.14 226.08,59.16 236.16,59.16 C246.8,59.16 252.33,67.7 252.33,77.43 L252.33,78.41 C252.33,78.9 252.12,79.11 251.63,79.11 Z M236.16,64.34 C230.91,64.34 226.71,67.98 225.59,73.93 L246.45,73.93 C245.33,68.19 241.2,64.34 236.16,64.34 Z M296.07,60.98 L283.82,94.3 C283.61,94.79 283.4,95 282.98,95 L278.08,95 C277.66,95 277.45,94.79 277.24,94.3 L264.99,60.98 C264.92,60.77 264.92,60.63 264.92,60.49 C264.92,60.07 265.2,59.86 265.55,59.86 L270.31,59.86 C270.87,59.86 271.15,60.07 271.29,60.56 L280.53,87.58 L289.77,60.56 C289.91,60.07 290.19,59.86 290.75,59.86 L295.51,59.86 C295.86,59.86 296.14,60.07 296.14,60.49 C296.14,60.63 296.14,60.77 296.07,60.98 Z M340.86,79.11 L314.54,79.11 C315.1,85.69 318.6,90.52 325.39,90.52 C330.43,90.52 333.3,88.49 334.98,84.08 C335.19,83.52 335.47,83.45 335.96,83.45 L340.51,83.45 C340.86,83.45 341,83.66 341,83.94 C341,84.08 341,84.22 340.86,84.64 C338.34,91.99 333.16,95.7 325.39,95.7 C314.47,95.7 308.66,87.72 308.66,77.43 C308.66,67.14 315.31,59.16 325.39,59.16 C336.03,59.16 341.56,67.7 341.56,77.43 L341.56,78.41 C341.56,78.9 341.35,79.11 340.86,79.11 Z M325.39,64.34 C320.14,64.34 315.94,67.98 314.82,73.93 L335.68,73.93 C334.56,68.19 330.43,64.34 325.39,64.34 Z M356.39,50.48 L356.39,46.7 C356.39,46.21 356.6,46 357.09,46 L370.6,46 C371.09,46 371.3,46.21 371.3,46.7 L371.3,89.82 L381.52,89.82 C382.01,89.82 382.22,90.03 382.22,90.52 L382.22,94.3 C382.22,94.79 382.01,95 381.52,95 L355.69,95 C355.2,95 354.99,94.79 354.99,94.3 L354.99,90.52 C354.99,90.03 355.2,89.82 355.69,89.82 L365.84,89.82 L365.84,51.18 L357.09,51.18 C356.6,51.18 356.39,50.97 356.39,50.48 Z M426.8,79.11 L400.48,79.11 C401.04,85.69 404.54,90.52 411.33,90.52 C416.37,90.52 419.24,88.49 420.92,84.08 C421.13,83.52 421.41,83.45 421.9,83.45 L426.45,83.45 C426.8,83.45 426.94,83.66 426.94,83.94 C426.94,84.08 426.94,84.22 426.8,84.64 C424.28,91.99 419.1,95.7 411.33,95.7 C400.41,95.7 394.6,87.72 394.6,77.43 C394.6,67.14 401.25,59.16 411.33,59.16 C421.97,59.16 427.5,67.7 427.5,77.43 L427.5,78.41 C427.5,78.9 427.29,79.11 426.8,79.11 Z M411.33,64.34 C406.08,64.34 401.88,67.98 400.76,73.93 L421.62,73.93 C420.5,68.19 416.37,64.34 411.33,64.34 Z M474.67,46.7 L474.67,94.3 C474.67,94.79 474.46,95 473.97,95 L469.91,95 C469.42,95 469.21,94.79 469.21,94.3 L469.21,91.01 C467.04,93.81 463.12,95.7 458.36,95.7 C449.26,95.7 443.31,88.63 443.31,77.43 C443.31,66.23 449.26,59.16 458.36,59.16 C462.77,59.16 466.83,61.19 469.21,63.85 L469.21,46.7 C469.21,46.21 469.42,46 469.91,46 L473.97,46 C474.46,46 474.67,46.21 474.67,46.7 Z M469.77,77.43 C469.77,70.08 466.13,64.34 459.48,64.34 C452.83,64.34 449.05,70.08 449.05,77.43 C449.05,84.78 452.83,90.52 459.48,90.52 C466.13,90.52 469.77,84.78 469.77,77.43 Z" id="leveled" stroke="#000000" stroke-width="1.2" fill="#000000"></path>
                </g>
            </g>
        </g>
    </g>
</svg>